<svg width="453" height="261" viewBox="0 0 453 261" fill="none" xmlns="http://www.w3.org/2000/svg">
<g clip-path="url(#clip0)">
<path d="M51.8884 77.15C31.8612 83.636 8.64799 93.7634 4.8929 114.473C2.5033 128.014 10.3548 142.124 22.1891 149.066C27.9924 152.479 35.0474 154.869 38.1197 160.9C42.7851 170.231 34.3646 180.813 25.489 186.275C16.6133 191.737 5.68944 195.947 1.70677 205.619C-0.910412 211.992 0.113703 219.274 2.73088 225.647C12.4031 248.86 40.7369 259.101 65.8846 257.849C91.0323 256.598 114.928 246.812 139.507 241.805C224.167 224.509 313.038 263.766 397.584 245.787C410.784 242.943 423.983 238.619 434.111 229.743C445.604 219.843 452.09 204.823 453 189.689C453.91 175.237 448.79 158.965 435.931 152.479C428.421 148.724 419.318 148.838 411.125 150.886C405.891 152.252 400.77 154.3 395.308 154.3C389.96 154.3 383.929 151.683 382.45 146.448C380.857 140.986 384.498 135.411 388.822 131.656C397.584 124.145 409.304 120.39 417.156 111.97C424.78 103.891 427.966 91.8289 425.463 81.1326C422.845 70.3225 414.539 61.1055 404.07 57.3504C377.329 47.9058 348.313 73.7362 321.003 66.1123C318.955 65.5433 316.793 64.633 315.769 62.9261C314.744 61.1055 314.972 58.9435 315.541 56.8953C318.841 45.8576 331.813 38.9164 332.382 27.4235C332.723 21.165 328.968 15.3617 324.303 11.1515C292.328 -17.5237 246.129 16.6134 213.585 27.3097C160.103 45.061 105.597 59.8538 51.8884 77.15Z" fill="#F46B59"/>
<path d="M169.434 161.469C169.434 161.469 169.434 161.355 169.434 161.469L179.106 155.665L174.782 148.269L165.11 153.959L139.621 110.718L129.494 116.749L124.714 179.448L128.356 185.592L160.672 166.476L171.824 185.365L180.699 180.13L169.434 161.469ZM133.362 172.734L133.249 172.506L136.321 138.824L135.98 125.17L136.321 124.942L142.466 135.98L156.234 159.193L133.362 172.734Z" fill="white"/>
<path d="M254.304 171.798C269.635 156.467 269.635 131.61 254.304 116.279C238.973 100.949 214.116 100.949 198.786 116.279C183.455 131.61 183.455 156.467 198.785 171.798C214.116 187.129 238.973 187.129 254.304 171.798Z" fill="#C24A4A"/>
<path fill-rule="evenodd" clip-rule="evenodd" d="M187.64 139.166C199.247 140.873 218.819 132.566 225.077 131.314C237.822 128.811 250.908 131.769 263.88 132.225C262.969 129.38 261.718 126.649 260.238 124.145C255.459 124.373 250.452 123.463 245.559 123.349C236.456 123.121 227.353 125.511 218.136 124.942C213.926 124.714 204.367 120.959 195.719 119.48C191.509 125.056 188.55 131.769 187.64 139.166Z" fill="#52504D"/>
<path fill-rule="evenodd" clip-rule="evenodd" d="M226.557 104.801C222.574 104.801 218.705 105.37 215.064 106.508C219.957 109.353 229.857 110.263 232.133 110.604C236.229 111.173 240.667 111.401 244.194 109.125L244.308 109.011C238.96 106.394 232.929 104.801 226.557 104.801Z" fill="#52504D"/>
<path fill-rule="evenodd" clip-rule="evenodd" d="M265.701 144.628C254.436 141.783 242.488 141.555 230.995 144.059C224.85 145.424 218.819 147.586 212.674 149.066C204.937 151 196.971 151.91 189.006 151.797C188.665 151.797 188.323 151.797 187.982 151.797C189.575 159.648 193.444 166.589 198.906 172.051C208.35 168.751 217.34 164.313 225.76 159.079C233.157 154.414 240.553 148.952 249.201 148.155C254.549 147.7 259.898 149.066 265.246 150.203C265.587 148.269 265.701 146.448 265.701 144.628Z" fill="#52504D"/>
<path fill-rule="evenodd" clip-rule="evenodd" d="M263.652 156.69C258.304 155.893 248.859 160.558 246.47 162.607C244.422 164.314 242.601 166.476 240.439 168.069C237.594 170.003 234.181 170.913 230.767 171.71C224.053 173.417 217.34 175.351 210.626 177.513C209.829 177.741 208.919 178.196 208.464 178.879C213.812 181.723 219.957 183.317 226.443 183.317C230.994 183.317 235.318 182.52 239.415 181.155C243.511 175.351 245.901 167.841 252.387 165.11C253.525 164.655 257.28 164.086 260.807 163.176C261.945 161.014 262.856 158.965 263.652 156.69Z" fill="#52504D"/>
<path fill-rule="evenodd" clip-rule="evenodd" d="M343.647 260.694C333.861 208.578 288.117 169.093 233.157 169.093C178.196 169.093 132.452 208.578 122.666 260.694H343.647Z" fill="white"/>
<path fill-rule="evenodd" clip-rule="evenodd" d="M253.753 233.498C253.184 237.481 247.153 239.87 240.098 238.96C233.043 238.05 227.808 234.067 228.377 230.198C228.946 226.216 234.977 223.826 242.032 224.736C249.087 225.533 254.322 229.515 253.753 233.498Z" fill="#9E574D"/>
<path d="M151.228 91.8289C159.272 91.8289 165.793 85.3079 165.793 77.2638C165.793 69.2196 159.272 62.6986 151.228 62.6986C143.184 62.6986 136.663 69.2196 136.663 77.2638C136.663 85.3079 143.184 91.8289 151.228 91.8289Z" fill="#CB5454"/>
<path fill-rule="evenodd" clip-rule="evenodd" d="M151.228 62.6986C148.611 62.6986 146.221 63.3813 144.173 64.5192C144.287 64.7468 144.4 64.8606 144.514 64.9744C145.994 66.4537 149.521 66.5675 151.455 66.5675C154.3 66.6812 157.145 66.3399 159.876 65.4296C157.486 63.7227 154.528 62.6986 151.228 62.6986Z" fill="#784123"/>
<path fill-rule="evenodd" clip-rule="evenodd" d="M162.379 70.4363C162.834 70.3225 163.29 70.095 163.745 69.8674C163.403 69.1846 162.948 68.6157 162.493 68.0467C161.014 68.7295 159.648 69.2984 158.169 69.9812C157.031 70.4363 155.893 71.0053 154.755 71.3467C153.048 71.8018 151.114 71.8018 149.407 71.8018C145.652 71.8018 142.011 71.4604 138.256 71.0053C137.345 72.9397 136.89 74.988 136.89 77.2638C136.89 78.2879 137.004 79.312 137.232 80.3361C138.028 79.9947 138.711 79.5396 139.394 79.0844C141.214 77.9465 143.376 77.15 145.424 76.4672C150.886 74.419 156.69 72.4846 162.379 70.4363Z" fill="#784123"/>
<path fill-rule="evenodd" clip-rule="evenodd" d="M164.541 71.4604C163.403 72.4846 162.607 73.85 161.355 74.7604C160.104 75.7845 158.624 76.581 157.145 77.15C156.121 77.6051 154.983 77.8327 153.959 78.4017C153.617 78.6292 153.162 78.8568 153.048 79.312C152.935 80.1085 153.731 80.5637 154.528 80.7913C156.007 81.1326 157.486 81.0188 159.079 81.0188C160.9 80.9051 162.607 80.9051 164.428 80.7913C164.769 80.7913 165.11 80.7913 165.338 80.6775C165.565 79.5396 165.793 78.4017 165.793 77.15C165.793 75.2155 165.338 73.2811 164.541 71.4604Z" fill="#784123"/>
<path fill-rule="evenodd" clip-rule="evenodd" d="M151.683 76.8086C149.066 77.3775 146.562 78.1741 144.173 79.1982C142.58 79.8809 140.986 80.7913 139.393 81.3602C138.938 81.474 138.256 81.5878 137.459 81.5878C138.369 84.3188 139.962 86.5946 142.011 88.4152C142.124 88.1876 142.352 88.0739 142.466 87.8463C144.628 85.0015 146.107 81.3602 149.293 79.5396C149.862 79.1982 150.431 78.9706 151 78.5155C151.455 78.1741 151.797 77.4913 151.683 76.8086Z" fill="#784123"/>
<path fill-rule="evenodd" clip-rule="evenodd" d="M164.314 83.4085C164.2 83.4085 163.972 83.4085 163.858 83.4085C160.786 83.636 157.714 83.7498 154.528 83.9774C152.593 84.0912 150.545 84.205 148.952 85.3429C147.7 86.1394 146.904 87.5049 146.107 88.7566C145.88 89.2118 145.311 89.7807 144.969 90.4635C146.79 91.3738 148.724 91.8289 150.886 91.8289C151.228 91.3738 151.569 90.8048 152.024 90.3497C154.072 87.6187 157.372 85.798 160.786 85.4567C161.696 85.3429 162.607 85.3429 163.517 85.2291C163.745 84.5464 164.086 83.9774 164.314 83.4085Z" fill="#784123"/>
<path fill-rule="evenodd" clip-rule="evenodd" d="M164.541 82.9533C164.883 82.043 165.224 81.1326 165.452 80.2223C161.696 81.5878 157.259 82.7257 152.593 83.636C147.814 84.5463 143.262 85.1153 139.28 85.2291C139.849 86.0256 140.418 86.7084 141.1 87.3911C144.742 87.1635 148.838 86.5946 153.048 85.798C157.145 85.1153 161.128 84.0912 164.541 82.9533Z" fill="#693B20"/>
<path d="M137.004 86.4808C131.77 86.4808 127.559 85.6843 127.104 83.1809C126.649 80.7913 129.721 78.4017 136.207 75.8983C136.776 75.6707 137.459 76.0121 137.687 76.581C137.914 77.15 137.573 77.8327 137.004 78.0603C130.404 80.5637 129.266 82.3844 129.266 82.7257C129.494 83.9774 137.687 85.4567 152.479 82.4981C158.738 81.2465 164.427 79.6534 168.638 77.8327C173.417 75.7845 174.213 74.3052 174.1 74.0776C173.986 73.7363 172.165 72.3708 164.769 72.5984C164.2 72.5984 163.631 72.1432 163.631 71.4605C163.631 70.7777 164.086 70.3226 164.769 70.3226C172.051 70.095 176.034 71.2329 176.489 73.6225C176.944 75.6707 174.669 77.7189 169.662 79.9948C165.338 81.9292 159.421 83.6361 153.048 84.8877C148.724 85.5705 142.352 86.4808 137.004 86.4808Z" fill="white"/>
<path d="M377.929 115.757C384.285 114.533 388.445 108.388 387.221 102.032C385.997 95.6766 379.852 91.5164 373.497 92.7405C367.141 93.9645 362.981 100.109 364.205 106.465C365.429 112.821 371.573 116.981 377.929 115.757Z" fill="#52504D"/>
<path fill-rule="evenodd" clip-rule="evenodd" d="M381.312 93.991C379.491 92.9669 377.557 92.5117 375.623 92.6255C375.623 92.7393 375.623 92.9669 375.736 93.0807C376.192 94.6737 378.695 96.0392 379.947 96.8358C381.881 97.9737 384.043 98.884 386.319 99.2254C385.295 97.0633 383.588 95.2427 381.312 93.991Z" fill="#BD5049"/>
<path fill-rule="evenodd" clip-rule="evenodd" d="M386.205 103.663C386.66 103.777 387.001 103.777 387.456 103.777C387.456 103.208 387.343 102.639 387.229 101.956C385.977 101.843 384.725 101.729 383.36 101.615C382.336 101.501 381.426 101.501 380.401 101.274C379.036 100.932 377.67 100.249 376.419 99.5667C373.802 98.0874 371.298 96.4944 368.795 94.6737C367.429 95.6978 366.291 96.9495 365.381 98.5426C364.926 99.3391 364.698 100.022 364.471 100.818C365.153 100.932 365.836 100.818 366.405 100.705C368.112 100.591 369.933 100.818 371.64 101.16C376.646 102.184 381.426 102.98 386.205 103.663Z" fill="#BD5049"/>
<path fill-rule="evenodd" clip-rule="evenodd" d="M387.343 105.256C386.205 105.484 385.067 106.167 383.815 106.394C382.564 106.622 381.198 106.622 379.833 106.508C378.922 106.394 378.012 106.167 377.102 106.167C376.76 106.167 376.419 106.167 376.191 106.508C375.736 106.963 376.191 107.646 376.647 108.101C377.557 108.898 378.695 109.466 379.719 110.035C380.971 110.718 382.336 111.287 383.588 111.97C383.815 112.084 384.043 112.197 384.271 112.311C384.953 111.629 385.409 110.832 385.977 110.035C386.774 108.329 387.229 106.849 387.343 105.256Z" fill="#BD5049"/>
<path fill-rule="evenodd" clip-rule="evenodd" d="M376.191 104.118C374.143 103.549 372.095 103.094 369.933 102.98C368.567 102.867 367.088 102.867 365.722 102.639C365.381 102.525 364.812 102.298 364.243 102.07C363.788 104.346 364.016 106.622 364.926 108.67C365.154 108.556 365.267 108.556 365.495 108.442C368.112 107.191 370.615 105.256 373.46 105.142C374.029 105.142 374.484 105.142 375.053 105.029C375.622 104.915 376.077 104.574 376.191 104.118Z" fill="#BD5049"/>
<path fill-rule="evenodd" clip-rule="evenodd" d="M382.677 113.677C382.564 113.563 382.45 113.563 382.336 113.449C380.06 112.425 377.784 111.287 375.509 110.263C374.143 109.58 372.664 108.898 371.071 109.125C369.933 109.239 368.795 109.808 367.771 110.491C367.429 110.718 366.86 110.946 366.292 111.173C367.202 112.425 368.454 113.563 369.933 114.473C370.388 114.246 370.843 114.018 371.298 113.791C373.802 112.653 376.76 112.539 379.377 113.677C380.06 113.904 380.743 114.359 381.426 114.587C381.767 114.246 382.222 113.904 382.677 113.677Z" fill="#BD5049"/>
<path fill-rule="evenodd" clip-rule="evenodd" d="M147.131 213.471L132.224 241.691L128.128 239.529C125.966 238.391 125.055 235.66 126.307 233.498L137.003 213.243C138.141 211.081 140.872 210.171 143.034 211.423L147.131 213.471Z" fill="white"/>
<path fill-rule="evenodd" clip-rule="evenodd" d="M333.292 241.008L324.417 218.819L328.741 217.112C331.016 216.202 333.634 217.34 334.544 219.616L340.12 233.498C341.03 235.774 339.892 238.391 337.616 239.301L333.292 241.008Z" fill="white"/>
<path fill-rule="evenodd" clip-rule="evenodd" d="M195.606 178.879L169.775 197.427L167.044 193.671C165.565 191.623 166.02 188.892 168.068 187.413L186.616 174.099C188.664 172.62 191.395 173.075 192.875 175.124L195.606 178.879Z" fill="white"/>
<path fill-rule="evenodd" clip-rule="evenodd" d="M312.81 209.602L287.435 190.372L290.279 186.73C291.759 184.796 294.603 184.341 296.538 185.82L314.858 199.589C316.792 201.068 317.248 203.913 315.768 205.847L312.81 209.602Z" fill="white"/>
<path d="M184.432 213.2C193.23 208.734 198.748 201.933 196.756 198.01C194.765 194.087 186.018 194.528 177.22 198.995C168.422 203.461 162.904 210.262 164.895 214.185C166.887 218.108 175.634 217.667 184.432 213.2Z" fill="#9E574D"/>
<path fill-rule="evenodd" clip-rule="evenodd" d="M178.423 202.433C186.388 198.337 194.354 197.654 197.199 200.385C197.312 199.475 197.199 198.678 196.857 197.995C194.809 194.127 186.047 194.582 177.285 199.02C168.41 203.457 162.948 210.285 164.882 214.268C165.11 214.609 165.337 214.95 165.679 215.292C166.134 211.309 171.141 206.075 178.423 202.433Z" fill="#F46B59"/>
<path fill-rule="evenodd" clip-rule="evenodd" d="M304.731 211.423C303.138 213.926 297.334 213.13 291.645 209.602C285.955 206.075 282.769 201.182 284.249 198.678C285.842 196.175 291.645 196.971 297.334 200.499C303.024 204.026 306.324 208.919 304.731 211.423Z" fill="#9E574D"/>
<path fill-rule="evenodd" clip-rule="evenodd" d="M295.855 202.433C300.976 205.619 304.162 209.944 303.479 212.561C304.048 212.333 304.503 211.992 304.731 211.537C306.324 209.033 303.024 204.14 297.335 200.613C291.645 197.085 285.842 196.289 284.249 198.792C284.135 199.02 284.021 199.361 283.907 199.589C286.524 198.451 291.19 199.475 295.855 202.433Z" fill="#F46B59"/>
<path fill-rule="evenodd" clip-rule="evenodd" d="M242.032 224.622C234.977 223.712 228.946 226.102 228.377 230.084C228.377 230.426 228.377 230.653 228.377 230.995C229.857 227.809 235.432 225.988 241.577 226.785C248.063 227.695 253.07 231.109 253.298 234.75C253.525 234.295 253.639 233.953 253.639 233.498C254.322 229.515 249.087 225.533 242.032 224.622Z" fill="#F46B59"/>
<path d="M67.9328 131.087C69.9438 131.087 71.5741 129.456 71.5741 127.445C71.5741 125.434 69.9438 123.804 67.9328 123.804C65.9218 123.804 64.2915 125.434 64.2915 127.445C64.2915 129.456 65.9218 131.087 67.9328 131.087Z" fill="#9E574D"/>
<path fill-rule="evenodd" clip-rule="evenodd" d="M282.883 26.1718C281.973 26.1718 281.176 25.3753 281.176 24.465C281.176 23.5546 281.973 22.7581 282.883 22.7581C283.793 22.7581 284.59 23.5546 284.59 24.465C284.476 25.4891 283.793 26.1718 282.883 26.1718Z" fill="#9E574D"/>
<path d="M306.324 57.0091C307.267 57.0091 308.031 56.2449 308.031 55.3022C308.031 54.3595 307.267 53.5953 306.324 53.5953C305.381 53.5953 304.617 54.3595 304.617 55.3022C304.617 56.2449 305.381 57.0091 306.324 57.0091Z" fill="#9E574D"/>
<path d="M29.244 111.06C30.1866 111.06 30.9508 110.295 30.9508 109.353C30.9508 108.41 30.1866 107.646 29.244 107.646C28.3013 107.646 27.5371 108.41 27.5371 109.353C27.5371 110.295 28.3013 111.06 29.244 111.06Z" fill="#9E574D"/>
<path fill-rule="evenodd" clip-rule="evenodd" d="M266.497 84.4326C266.497 85.5705 265.587 86.5946 264.335 86.5946C263.197 86.5946 262.173 85.6843 262.173 84.4326C262.173 83.2947 263.084 82.2705 264.335 82.2705C265.587 82.3843 266.497 83.2947 266.497 84.4326Z" fill="white"/>
<path fill-rule="evenodd" clip-rule="evenodd" d="M356.278 182.634C356.278 183.772 355.368 184.796 354.116 184.796C352.978 184.796 351.954 183.885 351.954 182.634C351.954 181.496 352.864 180.472 354.116 180.472C355.254 180.472 356.278 181.382 356.278 182.634Z" fill="white"/>
<path fill-rule="evenodd" clip-rule="evenodd" d="M419.204 186.161C419.204 187.299 418.294 188.323 417.042 188.323C415.904 188.323 414.88 187.413 414.88 186.161C414.88 185.023 415.79 183.999 417.042 183.999C418.294 183.999 419.204 185.023 419.204 186.161Z" fill="white"/>
<path fill-rule="evenodd" clip-rule="evenodd" d="M83.181 217.34C83.181 218.478 82.2706 219.502 81.0189 219.502C79.881 219.502 78.8569 218.592 78.8569 217.34C78.8569 216.088 79.7673 215.178 81.0189 215.178C82.1569 215.178 83.181 216.088 83.181 217.34Z" fill="white"/>
<path fill-rule="evenodd" clip-rule="evenodd" d="M206.416 62.6986C206.416 63.8365 205.505 64.8606 204.254 64.8606C203.116 64.8606 202.092 63.9503 202.092 62.6986C202.092 61.5607 203.002 60.5365 204.254 60.5365C205.505 60.5365 206.416 61.5607 206.416 62.6986Z" fill="white"/>
<path fill-rule="evenodd" clip-rule="evenodd" d="M180.586 114.587L183.43 116.18L180.472 117.773L178.879 120.618L177.399 117.659L174.555 116.066L177.399 114.587L178.993 111.742L180.586 114.587Z" fill="white"/>
<path fill-rule="evenodd" clip-rule="evenodd" d="M314.744 84.6601L316.565 85.6842L314.631 86.7084L313.606 88.529L312.582 86.7084L310.762 85.5705L312.696 84.5463L313.72 82.7257L314.744 84.6601Z" fill="white"/>
<path fill-rule="evenodd" clip-rule="evenodd" d="M95.2424 173.872L97.1769 174.896L95.2424 175.92L94.2183 177.741L93.1942 175.92L91.2598 174.782L93.1942 173.872L94.3321 171.937L95.2424 173.872Z" fill="white"/>
<path fill-rule="evenodd" clip-rule="evenodd" d="M96.3806 98.0874L98.2013 99.1115L96.2668 100.136L95.2427 101.956L94.2186 100.022L92.3979 98.9977L94.3324 97.9736L95.3565 96.153L96.3806 98.0874Z" fill="white"/>
<path fill-rule="evenodd" clip-rule="evenodd" d="M39.4851 211.195L41.3058 212.219L39.4851 213.243L38.3472 215.064L37.3231 213.243L35.5024 212.105L37.4369 211.195L38.461 209.261L39.4851 211.195Z" fill="white"/>
<path fill-rule="evenodd" clip-rule="evenodd" d="M377.216 158.738L379.15 159.762L377.216 160.786L376.191 162.607L375.167 160.786L373.347 159.648L375.167 158.738L376.305 156.803L377.216 158.738Z" fill="white"/>
<path fill-rule="evenodd" clip-rule="evenodd" d="M400.201 233.612L402.022 234.636L400.201 235.66L399.063 237.481L398.039 235.546L396.218 234.522L398.153 233.498L399.177 231.677L400.201 233.612Z" fill="white"/>
<path d="M335.494 140.954C333.36 145.541 330.321 148.69 326.376 150.402C322.465 152.128 317.921 152.386 312.746 151.174L312.563 151.567C317.994 154.97 321.416 158.794 322.829 163.038C324.242 167.282 323.836 171.795 321.61 176.579C318.425 183.426 313.596 187.595 307.123 189.087C300.666 190.546 293.064 189.241 284.317 185.172C280.516 183.404 277.164 181.486 274.261 179.418C271.375 177.398 268.777 174.973 266.466 172.145L270.078 164.38C272.474 167.368 275.234 170.087 278.359 172.537C281.531 174.969 284.69 176.917 287.835 178.38C300.251 184.157 308.723 182.18 313.25 172.45C317.304 163.735 312.484 156.193 298.79 149.822L291.713 146.53L294.983 139.502L302.157 142.84C307.759 145.447 312.77 146.283 317.189 145.35C321.624 144.385 324.862 141.707 326.904 137.317C328.535 133.811 328.603 130.496 327.109 127.369C325.647 124.258 322.852 121.742 318.724 119.822C315.579 118.359 312.416 117.405 309.235 116.962C306.054 116.518 302.145 116.612 297.507 117.244L295.94 109.82C299.97 108.865 304.207 108.625 308.65 109.098C313.14 109.553 317.515 110.771 321.774 112.753C328.752 115.999 333.427 120.127 335.799 125.136C338.187 130.112 338.085 135.385 335.494 140.954Z" fill="white"/>
</g>
<defs>
<clipPath id="clip0">
<rect width="453" height="260.694" fill="white"/>
</clipPath>
</defs>
</svg>
