<svg width="453" height="261" viewBox="0 0 453 261" fill="none" xmlns="http://www.w3.org/2000/svg">
<path d="M51.8885 77.1501C31.8614 83.6361 8.64811 93.7635 4.89303 114.473C2.50343 128.014 10.355 142.124 22.1892 149.066C27.9925 152.479 35.0475 154.869 38.1199 160.9C42.7853 170.231 34.3648 180.813 25.4891 186.275C16.6134 191.737 5.68956 195.947 1.70689 205.62C-0.91029 211.992 0.113825 219.274 2.73101 225.647C12.4032 248.86 40.737 259.101 65.8847 257.849C91.0324 256.598 114.928 246.812 139.507 241.805C224.167 224.509 313.038 263.767 397.584 245.788C410.784 242.943 423.983 238.619 434.111 229.743C445.604 219.843 452.09 204.823 453 189.689C453.91 175.237 448.79 158.965 435.931 152.479C428.421 148.724 419.318 148.838 411.125 150.886C405.891 152.252 400.77 154.3 395.308 154.3C389.96 154.3 383.929 151.683 382.45 146.448C380.857 140.987 384.498 135.411 388.822 131.656C397.584 124.146 409.304 120.39 417.156 111.97C424.78 103.891 427.966 91.8291 425.463 81.1328C422.846 70.3227 414.539 61.1056 404.07 57.3505C377.329 47.9059 348.313 73.7364 321.003 66.1124C318.955 65.5434 316.793 64.6331 315.769 62.9263C314.745 61.1056 314.972 58.9436 315.541 56.8954C318.841 45.8577 331.813 38.9165 332.382 27.4236C332.723 21.1652 328.968 15.3618 324.303 11.1516C292.328 -17.5236 246.129 16.6135 213.585 27.3098C160.103 45.0612 105.598 59.8539 51.8885 77.1501Z" fill="#494089"/>
<path d="M169.434 161.469C169.434 161.469 169.434 161.355 169.434 161.469L179.106 155.666L174.782 148.269L165.11 153.959L139.621 110.718L129.494 116.749L124.714 179.448L128.356 185.592L160.672 166.476L171.824 185.365L180.699 180.13L169.434 161.469ZM133.362 172.734L133.249 172.507L136.321 138.825L135.98 125.17L136.321 124.942L142.466 135.98L156.234 159.193L133.362 172.734Z" fill="white"/>
<path d="M344.103 130.176L334.089 124.032L276.397 149.066L272.642 155.21L304.617 174.896L293.124 193.672L301.886 199.02L313.379 180.244L323.051 186.161L327.489 178.879L317.817 172.962L344.103 130.176ZM309.055 167.5L286.525 153.617L286.638 153.39L317.817 140.304L329.765 133.704L330.106 133.932L323.165 144.514L309.055 167.5Z" fill="white"/>
<path d="M254.304 171.798C269.635 156.467 269.635 131.611 254.304 116.28C238.973 100.949 214.117 100.949 198.786 116.28C183.455 131.611 183.455 156.467 198.786 171.798C214.117 187.129 238.973 187.129 254.304 171.798Z" fill="#A37DFF"/>
<path fill-rule="evenodd" clip-rule="evenodd" d="M187.641 139.166C199.247 140.873 218.819 132.566 225.078 131.314C237.822 128.811 250.908 131.77 263.88 132.225C262.97 129.38 261.718 126.649 260.239 124.146C255.46 124.373 250.453 123.463 245.56 123.349C236.457 123.122 227.354 125.511 218.136 124.942C213.926 124.715 204.368 120.96 195.72 119.48C191.51 125.056 188.551 131.77 187.641 139.166Z" fill="#CCBBFF"/>
<path fill-rule="evenodd" clip-rule="evenodd" d="M226.557 104.801C222.574 104.801 218.706 105.37 215.064 106.508C219.957 109.353 229.857 110.263 232.133 110.605C236.229 111.174 240.667 111.401 244.195 109.125L244.308 109.012C238.96 106.394 232.929 104.801 226.557 104.801Z" fill="#CCBBFF"/>
<path fill-rule="evenodd" clip-rule="evenodd" d="M265.701 144.628C254.436 141.783 242.488 141.555 230.995 144.059C224.85 145.424 218.819 147.586 212.674 149.066C204.937 151 196.971 151.91 189.006 151.797C188.665 151.797 188.323 151.797 187.982 151.797C189.575 159.648 193.444 166.589 198.906 172.051C208.35 168.751 217.34 164.314 225.76 159.079C233.157 154.414 240.553 148.952 249.201 148.155C254.549 147.7 259.898 149.066 265.246 150.204C265.587 148.269 265.701 146.448 265.701 144.628Z" fill="#CCBBFF"/>
<path fill-rule="evenodd" clip-rule="evenodd" d="M263.653 156.69C258.305 155.893 248.86 160.559 246.47 162.607C244.422 164.314 242.601 166.476 240.439 168.069C237.595 170.003 234.181 170.913 230.767 171.71C224.054 173.417 217.34 175.351 210.626 177.513C209.83 177.741 208.92 178.196 208.464 178.879C213.813 181.724 219.957 183.317 226.443 183.317C230.995 183.317 235.319 182.52 239.415 181.155C243.512 175.351 245.901 167.841 252.387 165.11C253.525 164.655 257.28 164.086 260.808 163.176C261.946 161.014 262.856 158.965 263.653 156.69Z" fill="#CCBBFF"/>
<path fill-rule="evenodd" clip-rule="evenodd" d="M343.647 260.694C333.861 208.578 288.118 169.093 233.157 169.093C178.196 169.093 132.452 208.578 122.666 260.694H343.647Z" fill="white"/>
<path fill-rule="evenodd" clip-rule="evenodd" d="M253.753 233.498C253.184 237.481 247.153 239.871 240.098 238.96C233.043 238.05 227.809 234.067 228.378 230.198C228.946 226.216 234.977 223.826 242.032 224.737C249.087 225.533 254.322 229.516 253.753 233.498Z" fill="#90C9EA"/>
<path d="M151.228 91.8291C159.272 91.8291 165.793 85.308 165.793 77.2639C165.793 69.2198 159.272 62.6987 151.228 62.6987C143.184 62.6987 136.663 69.2198 136.663 77.2639C136.663 85.308 143.184 91.8291 151.228 91.8291Z" fill="#ABC3FF"/>
<path fill-rule="evenodd" clip-rule="evenodd" d="M151.228 62.6987C148.61 62.6987 146.221 63.3815 144.173 64.5194C144.286 64.747 144.4 64.8607 144.514 64.9745C145.993 66.4538 149.521 66.5676 151.455 66.5676C154.3 66.6814 157.145 66.34 159.876 65.4297C157.486 63.7228 154.528 62.6987 151.228 62.6987Z" fill="#79A1F2"/>
<path fill-rule="evenodd" clip-rule="evenodd" d="M162.379 70.4365C162.834 70.3227 163.29 70.0951 163.745 69.8675C163.403 69.1848 162.948 68.6158 162.493 68.0469C161.014 68.7296 159.648 69.2986 158.169 69.9813C157.031 70.4365 155.893 71.0054 154.755 71.3468C153.048 71.802 151.114 71.802 149.407 71.802C145.652 71.802 142.011 71.4606 138.256 71.0054C137.345 72.9399 136.89 74.9881 136.89 77.2639C136.89 78.288 137.004 79.3121 137.232 80.3363C138.028 79.9949 138.711 79.5397 139.394 79.0846C141.214 77.9467 143.376 77.1501 145.424 76.4674C150.886 74.4191 156.69 72.4847 162.379 70.4365Z" fill="#79A1F2"/>
<path fill-rule="evenodd" clip-rule="evenodd" d="M164.541 71.4607C163.403 72.4848 162.607 73.8503 161.355 74.7606C160.103 75.7847 158.624 76.5813 157.145 77.1502C156.121 77.6054 154.983 77.833 153.959 78.4019C153.617 78.6295 153.162 78.8571 153.048 79.3122C152.934 80.1088 153.731 80.5639 154.528 80.7915C156.007 81.1329 157.486 81.0191 159.079 81.0191C160.9 80.9053 162.607 80.9053 164.427 80.7915C164.769 80.7915 165.11 80.7915 165.338 80.6777C165.565 79.5398 165.793 78.4019 165.793 77.1502C165.793 75.2158 165.338 73.2813 164.541 71.4607Z" fill="#79A1F2"/>
<path fill-rule="evenodd" clip-rule="evenodd" d="M151.683 76.8088C149.066 77.3778 146.562 78.1743 144.173 79.1984C142.58 79.8812 140.986 80.7915 139.393 81.3605C138.938 81.4742 138.256 81.588 137.459 81.588C138.369 84.319 139.962 86.5948 142.011 88.4155C142.124 88.1879 142.352 88.0741 142.466 87.8465C144.628 85.0018 146.107 81.3605 149.293 79.5398C149.862 79.1984 150.431 78.9709 151 78.5157C151.455 78.1743 151.797 77.4916 151.683 76.8088Z" fill="#79A1F2"/>
<path fill-rule="evenodd" clip-rule="evenodd" d="M164.314 83.4087C164.2 83.4087 163.972 83.4087 163.858 83.4087C160.786 83.6363 157.714 83.7501 154.528 83.9776C152.593 84.0914 150.545 84.2052 148.952 85.3431C147.7 86.1397 146.904 87.5051 146.107 88.7568C145.88 89.212 145.311 89.781 144.969 90.4637C146.79 91.374 148.724 91.8292 150.886 91.8292C151.228 91.374 151.569 90.8051 152.024 90.3499C154.072 87.6189 157.372 85.7983 160.786 85.4569C161.696 85.3431 162.607 85.3431 163.517 85.2293C163.745 84.5466 164.086 83.9776 164.314 83.4087Z" fill="#79A1F2"/>
<path fill-rule="evenodd" clip-rule="evenodd" d="M164.541 82.9534C164.883 82.0431 165.224 81.1327 165.452 80.2224C161.696 81.5879 157.259 82.7258 152.593 83.6361C147.814 84.5465 143.262 85.1154 139.28 85.2292C139.849 86.0257 140.418 86.7085 141.1 87.3912C144.742 87.1636 148.838 86.5947 153.048 85.7982C157.145 85.1154 161.128 84.0913 164.541 82.9534Z" fill="#618DE5"/>
<path d="M137.004 86.481C131.77 86.481 127.559 85.6844 127.104 83.181C126.649 80.7914 129.721 78.4018 136.207 75.8984C136.776 75.6709 137.459 76.0122 137.687 76.5812C137.914 77.1501 137.573 77.8329 137.004 78.0605C130.404 80.5639 129.266 82.3845 129.266 82.7259C129.494 83.9776 137.687 85.4569 152.479 82.4983C158.738 81.2466 164.427 79.6535 168.638 77.8329C173.417 75.7847 174.213 74.3054 174.1 74.0778C173.986 73.7364 172.165 72.3709 164.769 72.5985C164.2 72.5985 163.631 72.1434 163.631 71.4606C163.631 70.7779 164.086 70.3227 164.769 70.3227C172.051 70.0951 176.034 71.233 176.489 73.6226C176.944 75.6709 174.669 77.7191 169.662 79.9949C165.338 81.9293 159.421 83.6362 153.048 84.8879C148.724 85.5706 142.352 86.481 137.004 86.481Z" fill="white"/>
<path d="M377.929 115.757C384.285 114.533 388.445 108.388 387.221 102.032C385.997 95.6766 379.852 91.5164 373.497 92.7405C367.141 93.9645 362.981 100.109 364.205 106.465C365.429 112.821 371.573 116.981 377.929 115.757Z" fill="#7B91FF"/>
<path fill-rule="evenodd" clip-rule="evenodd" d="M381.312 93.991C379.491 92.9668 377.557 92.5117 375.622 92.6255C375.622 92.7393 375.622 92.9668 375.736 93.0806C376.191 94.6737 378.695 96.0392 379.946 96.8357C381.881 97.9736 384.043 98.8839 386.319 99.2253C385.294 97.0633 383.588 95.2426 381.312 93.991Z" fill="#80C3FF"/>
<path fill-rule="evenodd" clip-rule="evenodd" d="M386.205 103.663C386.66 103.777 387.002 103.777 387.457 103.777C387.457 103.208 387.343 102.639 387.229 101.956C385.977 101.843 384.726 101.729 383.36 101.615C382.336 101.501 381.426 101.501 380.402 101.274C379.036 100.932 377.671 100.25 376.419 99.5668C373.802 98.0875 371.298 96.4945 368.795 94.6738C367.43 95.6979 366.292 96.9496 365.381 98.5427C364.926 99.3392 364.699 100.022 364.471 100.819C365.154 100.932 365.836 100.819 366.405 100.705C368.112 100.591 369.933 100.819 371.64 101.16C376.647 102.184 381.426 102.981 386.205 103.663Z" fill="#80C3FF"/>
<path fill-rule="evenodd" clip-rule="evenodd" d="M387.343 105.256C386.205 105.484 385.067 106.167 383.815 106.394C382.564 106.622 381.198 106.622 379.833 106.508C378.922 106.394 378.012 106.167 377.102 106.167C376.76 106.167 376.419 106.167 376.191 106.508C375.736 106.963 376.191 107.646 376.647 108.101C377.557 108.898 378.695 109.467 379.719 110.036C380.971 110.718 382.336 111.287 383.588 111.97C383.815 112.084 384.043 112.198 384.271 112.311C384.953 111.629 385.409 110.832 385.977 110.036C386.774 108.329 387.229 106.849 387.343 105.256Z" fill="#80C3FF"/>
<path fill-rule="evenodd" clip-rule="evenodd" d="M376.191 104.118C374.143 103.549 372.095 103.094 369.933 102.98C368.567 102.867 367.088 102.867 365.723 102.639C365.381 102.525 364.812 102.298 364.243 102.07C363.788 104.346 364.016 106.622 364.926 108.67C365.154 108.556 365.268 108.556 365.495 108.442C368.112 107.191 370.616 105.256 373.46 105.142C374.029 105.142 374.485 105.142 375.054 105.029C375.623 104.915 376.078 104.573 376.191 104.118Z" fill="#80C3FF"/>
<path fill-rule="evenodd" clip-rule="evenodd" d="M382.677 113.677C382.564 113.563 382.45 113.563 382.336 113.449C380.06 112.425 377.784 111.287 375.509 110.263C374.143 109.58 372.664 108.898 371.071 109.125C369.933 109.239 368.795 109.808 367.771 110.491C367.429 110.718 366.86 110.946 366.292 111.173C367.202 112.425 368.454 113.563 369.933 114.473C370.388 114.246 370.843 114.018 371.298 113.791C373.802 112.653 376.76 112.539 379.377 113.677C380.06 113.904 380.743 114.36 381.426 114.587C381.767 114.246 382.222 113.904 382.677 113.677Z" fill="#80C3FF"/>
<path fill-rule="evenodd" clip-rule="evenodd" d="M147.131 213.471L132.224 241.691L128.128 239.529C125.966 238.391 125.056 235.66 126.307 233.498L137.004 213.244C138.142 211.081 140.873 210.171 143.035 211.423L147.131 213.471Z" fill="white"/>
<path fill-rule="evenodd" clip-rule="evenodd" d="M333.292 241.008L324.417 218.819L328.741 217.112C331.017 216.202 333.634 217.34 334.544 219.616L340.12 233.498C341.03 235.774 339.892 238.391 337.616 239.302L333.292 241.008Z" fill="white"/>
<path fill-rule="evenodd" clip-rule="evenodd" d="M195.606 178.879L169.776 197.427L167.045 193.671C165.565 191.623 166.02 188.892 168.069 187.413L186.617 174.099C188.665 172.62 191.396 173.075 192.875 175.124L195.606 178.879Z" fill="white"/>
<path fill-rule="evenodd" clip-rule="evenodd" d="M312.81 209.602L287.435 190.372L290.28 186.73C291.759 184.796 294.604 184.341 296.538 185.82L314.858 199.589C316.793 201.068 317.248 203.913 315.769 205.847L312.81 209.602Z" fill="white"/>
<path d="M184.432 213.2C193.23 208.734 198.748 201.933 196.756 198.01C194.765 194.087 186.018 194.528 177.22 198.995C168.422 203.462 162.904 210.263 164.896 214.185C166.887 218.108 175.634 217.667 184.432 213.2Z" fill="#90C9EA"/>
<path fill-rule="evenodd" clip-rule="evenodd" d="M178.424 202.433C186.389 198.337 194.354 197.654 197.199 200.385C197.313 199.475 197.199 198.678 196.858 197.996C194.809 194.127 186.048 194.582 177.286 199.02C168.41 203.457 162.948 210.285 164.883 214.268C165.11 214.609 165.338 214.95 165.679 215.292C166.134 211.309 171.141 206.075 178.424 202.433Z" fill="#494089"/>
<path fill-rule="evenodd" clip-rule="evenodd" d="M304.731 211.423C303.138 213.926 297.334 213.13 291.645 209.602C285.955 206.075 282.769 201.182 284.249 198.678C285.842 196.175 291.645 196.972 297.334 200.499C303.024 204.027 306.324 208.92 304.731 211.423Z" fill="#90C9EA"/>
<path fill-rule="evenodd" clip-rule="evenodd" d="M295.855 202.434C300.976 205.62 304.162 209.944 303.479 212.561C304.048 212.333 304.503 211.992 304.731 211.537C306.324 209.033 303.024 204.14 297.335 200.613C291.645 197.085 285.842 196.289 284.249 198.792C284.135 199.02 284.021 199.361 283.907 199.589C286.524 198.451 291.19 199.475 295.855 202.434Z" fill="#494089"/>
<path fill-rule="evenodd" clip-rule="evenodd" d="M242.033 224.623C234.978 223.712 228.947 226.102 228.378 230.084C228.378 230.426 228.378 230.653 228.378 230.995C229.857 227.809 235.433 225.988 241.577 226.785C248.063 227.695 253.07 231.109 253.298 234.75C253.525 234.295 253.639 233.953 253.639 233.498C254.322 229.516 249.088 225.533 242.033 224.623Z" fill="#494089"/>
<path d="M67.933 131.087C69.9441 131.087 71.5743 129.457 71.5743 127.445C71.5743 125.434 69.9441 123.804 67.933 123.804C65.922 123.804 64.2917 125.434 64.2917 127.445C64.2917 129.457 65.922 131.087 67.933 131.087Z" fill="#90C9EA"/>
<path fill-rule="evenodd" clip-rule="evenodd" d="M282.883 26.172C281.973 26.172 281.176 25.3755 281.176 24.4652C281.176 23.5548 281.973 22.7583 282.883 22.7583C283.793 22.7583 284.59 23.5548 284.59 24.4652C284.476 25.4893 283.793 26.172 282.883 26.172Z" fill="#90C9EA"/>
<path d="M306.324 57.0092C307.267 57.0092 308.031 56.245 308.031 55.3023C308.031 54.3596 307.267 53.5955 306.324 53.5955C305.381 53.5955 304.617 54.3596 304.617 55.3023C304.617 56.245 305.381 57.0092 306.324 57.0092Z" fill="#90C9EA"/>
<path d="M29.2442 111.06C30.1869 111.06 30.9511 110.296 30.9511 109.353C30.9511 108.41 30.1869 107.646 29.2442 107.646C28.3015 107.646 27.5374 108.41 27.5374 109.353C27.5374 110.296 28.3015 111.06 29.2442 111.06Z" fill="#90C9EA"/>
<path fill-rule="evenodd" clip-rule="evenodd" d="M266.497 84.4328C266.497 85.5707 265.587 86.5948 264.335 86.5948C263.197 86.5948 262.173 85.6845 262.173 84.4328C262.173 83.2949 263.084 82.2708 264.335 82.2708C265.587 82.3845 266.497 83.2949 266.497 84.4328Z" fill="white"/>
<path fill-rule="evenodd" clip-rule="evenodd" d="M356.278 182.634C356.278 183.772 355.368 184.796 354.116 184.796C352.978 184.796 351.954 183.886 351.954 182.634C351.954 181.496 352.864 180.472 354.116 180.472C355.254 180.472 356.278 181.382 356.278 182.634Z" fill="white"/>
<path fill-rule="evenodd" clip-rule="evenodd" d="M419.204 186.162C419.204 187.299 418.294 188.324 417.042 188.324C415.904 188.324 414.88 187.413 414.88 186.162C414.88 185.024 415.79 184 417.042 184C418.294 184 419.204 185.024 419.204 186.162Z" fill="white"/>
<path fill-rule="evenodd" clip-rule="evenodd" d="M83.181 217.34C83.181 218.478 82.2706 219.502 81.0189 219.502C79.881 219.502 78.8569 218.592 78.8569 217.34C78.8569 216.088 79.7673 215.178 81.0189 215.178C82.1569 215.178 83.181 216.088 83.181 217.34Z" fill="white"/>
<path fill-rule="evenodd" clip-rule="evenodd" d="M206.416 62.6986C206.416 63.8365 205.506 64.8607 204.254 64.8607C203.116 64.8607 202.092 63.9503 202.092 62.6986C202.092 61.5607 203.002 60.5366 204.254 60.5366C205.506 60.5366 206.416 61.5607 206.416 62.6986Z" fill="white"/>
<path fill-rule="evenodd" clip-rule="evenodd" d="M180.586 114.587L183.43 116.18L180.472 117.773L178.879 120.618L177.399 117.66L174.555 116.066L177.399 114.587L178.993 111.742L180.586 114.587Z" fill="white"/>
<path fill-rule="evenodd" clip-rule="evenodd" d="M314.745 84.6603L316.565 85.6844L314.631 86.7085L313.607 88.5292L312.583 86.7085L310.762 85.5706L312.696 84.5465L313.721 82.7258L314.745 84.6603Z" fill="white"/>
<path fill-rule="evenodd" clip-rule="evenodd" d="M95.2427 173.872L97.1771 174.896L95.2427 175.92L94.2186 177.741L93.1945 175.92L91.26 174.782L93.1945 173.872L94.3324 171.938L95.2427 173.872Z" fill="white"/>
<path fill-rule="evenodd" clip-rule="evenodd" d="M96.3806 98.0875L98.2013 99.1116L96.2668 100.136L95.2427 101.956L94.2186 100.022L92.3979 98.9978L94.3324 97.9737L95.3565 96.1531L96.3806 98.0875Z" fill="white"/>
<path fill-rule="evenodd" clip-rule="evenodd" d="M39.4854 211.195L41.306 212.219L39.4854 213.243L38.3474 215.064L37.3233 213.243L35.5027 212.106L37.4371 211.195L38.4612 209.261L39.4854 211.195Z" fill="white"/>
<path fill-rule="evenodd" clip-rule="evenodd" d="M377.216 158.738L379.15 159.762L377.216 160.786L376.191 162.607L375.167 160.786L373.347 159.648L375.167 158.738L376.305 156.803L377.216 158.738Z" fill="white"/>
<path fill-rule="evenodd" clip-rule="evenodd" d="M400.201 233.612L402.022 234.636L400.201 235.66L399.063 237.481L398.039 235.547L396.219 234.522L398.153 233.498L399.177 231.678L400.201 233.612Z" fill="white"/>
</svg>
