<svg width="172" height="81" viewBox="0 0 172 81" fill="none" xmlns="http://www.w3.org/2000/svg">
<path d="M74.0901 41.8309L72.176 36.6408C72.1024 36.4199 71.7895 36.4199 71.7159 36.6408L69.8018 41.8309C69.7466 41.9966 69.857 42.1622 70.0227 42.1622H73.8693C74.0349 42.1622 74.1638 41.9966 74.0901 41.8309ZM74.992 44.7573H68.9184C68.8079 44.7573 68.7343 44.8125 68.6975 44.923L67.5012 48.1438C67.4644 48.2358 67.3723 48.3095 67.2803 48.3095H64.6484C64.4828 48.3095 64.3539 48.1438 64.4276 47.9782L70.4828 32.8678C70.5196 32.7757 70.6116 32.7205 70.7036 32.7205H73.2251C73.3171 32.7205 73.4092 32.7757 73.446 32.8678L79.5012 47.9782C79.5564 48.1438 79.446 48.3095 79.2803 48.3095H76.6484C76.538 48.3095 76.4644 48.2542 76.4276 48.1438L75.2312 44.923C75.176 44.8125 75.084 44.7573 74.992 44.7573ZM80.7343 38.0027H82.9797C83.1085 38.0027 83.219 38.1132 83.219 38.242V48.0518C83.219 48.1806 83.1085 48.2911 82.9797 48.2911H80.7343C80.6055 48.2911 80.495 48.1806 80.495 48.0518V38.242C80.495 38.1132 80.6055 38.0027 80.7343 38.0027ZM91.446 40.377C91.446 40.5058 91.3355 40.6162 91.2067 40.6162H91.1331C90.0104 40.6162 89.2006 40.8923 88.6852 41.426C88.1699 41.9598 87.9122 42.8432 87.9122 44.0763V48.0518C87.9122 48.1806 87.8018 48.2911 87.673 48.2911H85.446C85.3171 48.2911 85.2067 48.1806 85.2067 48.0518V38.242C85.2067 38.1132 85.3171 38.0027 85.446 38.0027H87.6546C87.7834 38.0027 87.8938 38.1132 87.8938 38.242V40.1745H87.9306C88.2067 39.3647 88.63 38.7573 89.2006 38.334C89.7711 37.9107 90.4889 37.6898 91.3355 37.6898H91.446V40.377ZM97.6116 40.3033C97.4828 40.3033 97.3723 40.4138 97.3723 40.5426V44.6285C97.3723 45.0518 97.446 45.3463 97.6116 45.5119C97.7773 45.696 98.0533 45.788 98.4582 45.788H98.6791C98.8079 45.788 98.9184 45.8984 98.9184 46.0273V48.0886C98.9184 48.2174 98.8079 48.3279 98.6791 48.3279H97.722C96.7282 48.3279 95.9552 48.0702 95.4214 47.5549C94.8877 47.0395 94.6116 46.2849 94.6116 45.2727V40.5426C94.6116 40.4138 94.5012 40.3033 94.3723 40.3033H92.9736C92.8447 40.3033 92.7343 40.1929 92.7343 40.0641V38.2604C92.7343 38.1316 92.8447 38.0211 92.9736 38.0211H94.3723C94.5012 38.0211 94.6116 37.9107 94.6116 37.7819V34.1561C94.6116 34.0273 94.722 33.9168 94.8509 33.9168H97.0963C97.2251 33.9168 97.3355 34.0273 97.3355 34.1561V37.7819C97.3355 37.9107 97.446 38.0211 97.5748 38.0211H99.2128C99.3417 38.0211 99.4521 38.1316 99.4521 38.2604V40.0641C99.4521 40.1929 99.3417 40.3033 99.2128 40.3033H97.6116V40.3033ZM107.918 45.2358C108.434 44.7021 108.691 44.0027 108.691 43.1377C108.691 42.2727 108.434 41.5733 107.918 41.0395C107.403 40.5058 106.74 40.2297 105.894 40.2297C105.066 40.2297 104.385 40.5058 103.869 41.0395C103.354 41.5733 103.096 42.2727 103.096 43.1377C103.096 44.0027 103.354 44.7021 103.869 45.2358C104.385 45.7696 105.047 46.0457 105.894 46.0457C106.74 46.0457 107.403 45.7696 107.918 45.2358ZM102.728 47.9782C101.974 47.5549 101.366 46.9291 100.943 46.1009C100.501 45.2727 100.28 44.2972 100.28 43.1561C100.28 42.015 100.501 41.0211 100.943 40.2113C101.385 39.3831 101.974 38.7573 102.728 38.334C103.483 37.9107 104.311 37.6898 105.231 37.6898C106.041 37.6898 106.722 37.8371 107.293 38.15C107.863 38.4628 108.323 38.9046 108.655 39.4567H108.691V38.2604C108.691 38.1316 108.802 38.0211 108.931 38.0211H111.158C111.286 38.0211 111.397 38.1316 111.397 38.2604V48.0702C111.397 48.199 111.286 48.3095 111.158 48.3095H108.931C108.802 48.3095 108.691 48.199 108.691 48.0702V46.8739H108.655C108.305 47.4444 107.863 47.8677 107.293 48.1806C106.722 48.4935 106.041 48.6408 105.231 48.6408C104.311 48.6223 103.483 48.4199 102.728 47.9782ZM120.691 45.2358C121.207 44.7021 121.464 44.0027 121.464 43.1377C121.464 42.2727 121.207 41.5733 120.691 41.0395C120.176 40.5058 119.513 40.2297 118.667 40.2297C117.839 40.2297 117.158 40.5058 116.642 41.0395C116.127 41.5733 115.869 42.2727 115.869 43.1377C115.869 44.0027 116.127 44.7021 116.642 45.2358C117.158 45.7696 117.82 46.0457 118.667 46.0457C119.495 46.0457 120.176 45.7696 120.691 45.2358ZM117.305 48.1622C116.734 47.8493 116.274 47.4076 115.943 46.8555H115.906V48.0518C115.906 48.1806 115.796 48.2911 115.667 48.2911H113.421C113.293 48.2911 113.182 48.1806 113.182 48.0518V32.9414C113.182 32.8125 113.293 32.7021 113.421 32.7021H115.667C115.796 32.7021 115.906 32.8125 115.906 32.9414V39.4567H115.943C116.293 38.8862 116.734 38.4628 117.305 38.15C117.875 37.8371 118.556 37.6898 119.366 37.6898C120.268 37.6898 121.096 37.9107 121.869 38.334C122.624 38.7573 123.231 39.3831 123.655 40.2113C124.096 41.0395 124.317 42.015 124.317 43.1561C124.317 44.2972 124.096 45.2911 123.655 46.1009C123.213 46.9291 122.624 47.5549 121.869 47.9782C121.115 48.4015 120.286 48.6223 119.366 48.6223C118.556 48.6223 117.875 48.4751 117.305 48.1622ZM128.109 48.2911H125.863C125.734 48.2911 125.624 48.1806 125.624 48.0518V32.9414C125.624 32.8125 125.734 32.7021 125.863 32.7021H128.109C128.237 32.7021 128.348 32.8125 128.348 32.9414V48.0518C128.348 48.1806 128.237 48.2911 128.109 48.2911ZM133.409 40.377C133.041 40.6714 132.783 41.0947 132.655 41.6469C132.618 41.7941 132.728 41.9414 132.894 41.9414H137.182C137.329 41.9414 137.44 41.8125 137.421 41.6653C137.329 41.15 137.109 40.7266 136.759 40.4138C136.336 40.0457 135.783 39.8616 135.102 39.8616C134.403 39.88 133.851 40.0457 133.409 40.377ZM138.912 39.107C139.796 40.0641 140.219 41.426 140.219 43.1745V43.469C140.219 43.5978 140.109 43.7082 139.98 43.7082H132.82C132.673 43.7082 132.544 43.8371 132.581 44.0027C132.691 44.6469 132.986 45.1622 133.446 45.5487C133.98 45.9904 134.642 46.2113 135.434 46.2113C136.464 46.2113 137.421 45.8064 138.305 44.9966C138.415 44.9046 138.581 44.923 138.673 45.0334L139.777 46.5978C139.851 46.6898 139.832 46.8371 139.74 46.9107C139.207 47.3892 138.618 47.7757 137.955 48.0886C137.237 48.4383 136.409 48.6039 135.434 48.6039C134.311 48.6039 133.354 48.3831 132.507 47.923C131.679 47.4628 131.035 46.8371 130.575 46.0089C130.115 45.1806 129.875 44.2236 129.875 43.1377C129.875 42.0518 130.096 41.0947 130.538 40.2665C130.98 39.4383 131.605 38.7941 132.415 38.334C133.225 37.8739 134.145 37.6346 135.231 37.6346C136.796 37.6714 138.029 38.15 138.912 39.107ZM83.5319 34.377C83.5319 35.2972 82.7957 36.0334 81.8754 36.0334C80.9552 36.0334 80.219 35.2972 80.219 34.377C80.219 33.4567 80.9552 32.7205 81.8754 32.7205C82.7773 32.7205 83.5319 33.4567 83.5319 34.377Z" fill="#333333"/>
<path d="M42.6177 28.3038L31.9061 32.7392C31.3171 32.9785 31.3171 33.8251 31.9245 34.0643L42.6729 38.3341C43.6116 38.7022 44.6791 38.7022 45.6177 38.3341L56.3662 34.0643C56.9735 33.8251 56.9736 32.9785 56.3846 32.7392L45.6729 28.3038C44.6975 27.8989 43.5932 27.8989 42.6177 28.3038Z" fill="#FCB400"/>
<path d="M45.1023 40.6707V51.3271C45.1023 51.8425 45.6176 52.1738 46.0778 51.9897L58.0594 47.3333C58.3354 47.2228 58.5195 46.9652 58.5195 46.6707V36.0143C58.5195 35.4989 58.0041 35.1676 57.544 35.3517L45.5624 40.0081C45.2863 40.1001 45.1023 40.3762 45.1023 40.6707Z" fill="#18BFFF"/>
<path d="M42.3048 41.2073L38.7526 42.919L38.3845 43.0846L30.8753 46.6736C30.3968 46.8944 29.7894 46.5632 29.7894 46.0294V36.0356C29.7894 35.8515 29.8815 35.6859 30.0103 35.557C30.0655 35.5018 30.1207 35.465 30.1943 35.4282C30.3784 35.3178 30.6361 35.2994 30.8385 35.373L42.2311 39.8822C42.8201 40.1398 42.8569 40.9497 42.3048 41.2073Z" fill="#F82B60"/>
<path d="M42.3053 41.2073L38.7531 42.919L30.0292 35.557C30.0844 35.5018 30.1396 35.465 30.2133 35.4282C30.3973 35.3178 30.655 35.2994 30.8574 35.373L42.2501 39.8822C42.8206 40.1399 42.8574 40.9497 42.3053 41.2073Z" fill="black"/>
</svg>
