<svg width="172" height="81" viewBox="0 0 172 81" fill="none" xmlns="http://www.w3.org/2000/svg">
<path d="M77.8203 46.1875C80.3125 46.1875 81.9844 44.9453 82.5 42.7188H81.0781C80.6719 44.0938 79.4844 44.8906 77.8281 44.8906C75.6016 44.8906 74.1875 43.125 74.1875 40.3594C74.1875 37.6172 75.6172 35.8359 77.8203 35.8359C79.4297 35.8359 80.7188 36.8047 81.0781 38.2812H82.5C82.1406 36.0312 80.2734 34.5391 77.8203 34.5391C74.7344 34.5391 72.7422 36.8203 72.7422 40.3594C72.7422 43.9297 74.7109 46.1875 77.8203 46.1875ZM90.625 37.875H89.2656V42.6484C89.2656 44.0312 88.4688 44.9375 87.1484 44.9375C85.8906 44.9375 85.2734 44.2266 85.2734 42.9062V37.875H83.9141V43.1484C83.9141 44.9922 84.9531 46.1406 86.7266 46.1406C87.9766 46.1406 88.8203 45.6172 89.3047 44.6797H89.3359V46H90.625V37.875ZM92.25 40.1172C92.25 41.2891 92.9922 42 94.5234 42.3672L95.8125 42.6797C96.7422 42.9062 97.0625 43.2422 97.0625 43.8281C97.0625 44.5625 96.3828 45.0312 95.2812 45.0312C94.1797 45.0312 93.5547 44.5859 93.3906 43.6562H92.0312C92.1875 45.1797 93.375 46.1406 95.2812 46.1406C97.0938 46.1406 98.4297 45.1406 98.4297 43.7266C98.4297 42.5625 97.8359 41.9219 96.1953 41.5234L94.9062 41.2109C94 40.9922 93.5859 40.6094 93.5859 40.0469C93.5859 39.3359 94.2422 38.8438 95.2344 38.8438C96.2344 38.8438 96.8594 39.3672 96.9609 40.2188H98.2578C98.2031 38.7812 97.0156 37.7344 95.2344 37.7344C93.4766 37.7344 92.25 38.7266 92.25 40.1172ZM100.281 35.9141V37.875H99.0703V38.9922H100.281V43.8906C100.281 45.4531 100.859 46.0625 102.352 46.0625C102.672 46.0625 103.047 46.0391 103.211 46V44.8594C103.117 44.875 102.805 44.8984 102.648 44.8984C101.953 44.8984 101.641 44.5625 101.641 43.8203V38.9922H103.219V37.875H101.641V35.9141H100.281ZM107.805 46.1406C110.047 46.1406 111.562 44.5234 111.562 41.9375C111.562 39.3438 110.047 37.7344 107.805 37.7344C105.555 37.7344 104.039 39.3438 104.039 41.9375C104.039 44.5234 105.555 46.1406 107.805 46.1406ZM107.805 44.9453C106.367 44.9453 105.422 43.8516 105.422 41.9375C105.422 40.0234 106.367 38.9297 107.805 38.9297C109.242 38.9297 110.18 40.0234 110.18 41.9375C110.18 43.8516 109.242 44.9453 107.805 44.9453ZM112.938 46H114.297V40.9062C114.297 39.7812 115.078 38.9375 116.156 38.9375C117.164 38.9375 117.82 39.5781 117.82 40.5547V46H119.18V40.8359C119.18 39.7344 119.938 38.9375 121.016 38.9375C122.086 38.9375 122.703 39.5938 122.703 40.7031V46H124.062V40.3906C124.062 38.7812 123.023 37.7344 121.414 37.7344C120.273 37.7344 119.32 38.3125 118.867 39.2812H118.836C118.484 38.2969 117.664 37.7344 116.555 37.7344C115.461 37.7344 114.633 38.3125 114.25 39.1719H114.219V37.875H112.938V46Z" fill="black"/>
<path d="M60.039 33.6097C60.2323 33.4164 60.4618 33.2631 60.7143 33.1584C60.9668 33.0538 61.2375 33 61.5109 33C61.7842 33 62.0549 33.0538 62.3074 33.1584C62.56 33.2631 62.7895 33.4164 62.9827 33.6097C63.176 33.803 63.3294 34.0324 63.434 34.285C63.5386 34.5375 63.5924 34.8082 63.5924 35.0815C63.5924 35.3549 63.5386 35.6256 63.434 35.8781C63.3294 36.1306 63.176 36.3601 62.9827 36.5534L53.0476 46.4885L49 47.5924L50.1039 43.5448L60.039 33.6097Z" stroke="#444754" stroke-width="1.5" stroke-linecap="round" stroke-linejoin="round"/>
</svg>
