<svg width="321" height="181" viewBox="0 0 321 181" fill="none" xmlns="http://www.w3.org/2000/svg">
<path d="M266.121 70.0316C275.445 21.5427 232.001 20.6067 204.115 14.6431C179.234 9.32481 156.155 27.556 134.422 31.4915C103.145 37.1502 83.2929 33.8387 68.9897 40.717C33.5524 57.7498 53.1409 72.1021 40.184 94.7936C31.4084 110.167 27.8967 121.151 30.7958 129.724H289.043C290.097 106.565 259.71 103.381 266.121 70.0316Z" fill="#D4ECFA"/>
<path d="M126.73 47.6521C126.73 47.6521 108.665 44.8724 102.639 51.1834C96.6203 57.4874 97.8241 80.3278 102.639 90.1277C107.454 99.9346 124.564 94.9 124.564 94.9L126.73 47.6521Z" fill="#91D1F4"/>
<path d="M1 129.724H320" stroke="#5597D2" stroke-width="1.5" stroke-miterlimit="10" stroke-linecap="round" stroke-linejoin="round"/>
<path d="M252.167 88.4754C251.035 73.2083 235.193 61.1677 220.761 54.6581C210.205 49.8929 184.113 39.9299 157.744 37.4197C152.594 36.9304 140.207 36.6396 131.417 41.029C120.155 46.6593 113.41 57.2038 119.849 75.0662C120.867 77.9026 126.352 74.2365 129.885 77.2786L128.532 79.9803L145.193 91.8721L198.751 96.9635C198.751 96.9635 209.493 86.6247 216.602 85.8872C221.887 85.3341 232.244 87.9436 237.294 93.1981C243.84 100.006 240.3 112.443 240.3 112.443C244.282 110.883 246.376 113.542 246.376 113.542C246.376 113.542 253.307 103.75 252.167 88.4754Z" fill="white"/>
<path d="M226.624 85.5965V172.299H83.856V76.8319C83.856 74.6124 85.6652 72.8112 87.8947 72.8112H126.352C127.335 72.8112 128.283 73.1658 129.023 73.8182L136.731 80.576C137.471 81.2213 138.419 81.5829 139.402 81.5829H222.592C224.815 81.5758 226.624 83.377 226.624 85.5965Z" fill="#5597D2"/>
<path d="M262.239 119.648H119.471L83.856 172.299H226.624L262.239 119.648Z" fill="#D4ECFA"/>
<path d="M168.215 172.299H226.624L262.239 119.648H226.04" stroke="#5597D2" stroke-width="1.5" stroke-miterlimit="10" stroke-linecap="round" stroke-linejoin="round"/>
<path d="M147.964 172.299H157.331" stroke="#5597D2" stroke-width="1.5" stroke-miterlimit="10" stroke-linecap="round" stroke-linejoin="round"/>
<path d="M215.94 126.817H213.803V124.69" stroke="#91D1F4" stroke-width="1.5" stroke-miterlimit="10" stroke-linecap="round" stroke-linejoin="round"/>
<path d="M213.802 120.456V92.7656C213.802 90.546 211.993 88.7449 209.764 88.7449H126.573C125.59 88.7449 124.643 88.3904 123.902 87.738L116.195 80.9802C115.454 80.3349 114.507 79.9732 113.524 79.9732H75.0661C72.8366 79.9732 71.0273 81.7744 71.0273 83.9939V175.214" stroke="#91D1F4" stroke-width="1.5" stroke-miterlimit="10" stroke-linecap="round" stroke-linejoin="round" stroke-dasharray="4.25 4.25"/>
<path d="M71.0347 177.341V179.468H73.1716" stroke="#91D1F4" stroke-width="1.5" stroke-miterlimit="10" stroke-linecap="round" stroke-linejoin="round"/>
<path d="M77.3672 179.468H209.564" stroke="#91D1F4" stroke-width="1.5" stroke-miterlimit="10" stroke-linecap="round" stroke-linejoin="round" stroke-dasharray="4.2 4.2"/>
<path d="M211.666 179.468H213.802L214.992 177.703" stroke="#91D1F4" stroke-width="1.5" stroke-miterlimit="10" stroke-linecap="round" stroke-linejoin="round"/>
<path d="M217.549 173.923L246.946 130.469" stroke="#91D1F4" stroke-width="1.5" stroke-miterlimit="10" stroke-linecap="round" stroke-linejoin="round" stroke-dasharray="4.58 4.58"/>
<path d="M248.221 128.583L249.418 126.817H247.281" stroke="#91D1F4" stroke-width="1.5" stroke-miterlimit="10" stroke-linecap="round" stroke-linejoin="round"/>
<path d="M242.801 126.817H218.176" stroke="#91D1F4" stroke-width="1.5" stroke-miterlimit="10" stroke-linecap="round" stroke-linejoin="round" stroke-dasharray="4.48 4.48"/>
<path d="M265.117 94.7156V109.749" stroke="#5597D2" stroke-width="1.5" stroke-miterlimit="10" stroke-linecap="round" stroke-linejoin="round"/>
<path d="M282.675 100.97L271.449 112.145" stroke="#5597D2" stroke-width="1.5" stroke-miterlimit="10" stroke-linecap="round" stroke-linejoin="round"/>
<path d="M291.778 118.818H273.564" stroke="#5597D2" stroke-width="1.5" stroke-miterlimit="10" stroke-linecap="round" stroke-linejoin="round"/>
<path d="M178.016 81.5758C178.016 78.7323 176.655 77.931 176.655 77.931L164.568 75.8391C142.721 71.8681 142.507 58.4802 142.507 58.4802" stroke="#5597D2" stroke-width="1.5" stroke-miterlimit="10" stroke-linecap="round" stroke-linejoin="round"/>
<path d="M177.7 78C177.7 78 182.781 74.5202 185.366 75.6831C187.945 76.8461 191.991 78.3139 194.334 83.533C194.334 83.533 195.716 86.185 194.334 86.2914C192.952 86.3978 192.418 85.0221 192.204 84.1712C192.204 84.1712 192.311 86.731 191.136 86.2985C189.961 85.8659 190.153 83.533 190.153 83.533C190.153 83.533 187.468 86.8232 185.366 86.341C185.366 86.341 183.578 85.9652 186.67 83.3202L182.36 81.5758H178.7C178.7 81.5758 179 79.5 177.7 78Z" fill="#D4ECFA"/>
<path d="M142.507 56.5088C142.507 56.5088 142.621 54.8212 143.284 53.7008" stroke="#5597D2" stroke-width="1.5" stroke-miterlimit="10" stroke-linecap="round" stroke-linejoin="round"/>
<path d="M239.075 112.982C239.075 112.982 230.698 115.5 231.125 120.839C231.545 126.172 233.241 125.193 233.241 125.193C233.241 125.193 234.366 124.697 234.231 122.562C234.088 120.421 234.088 120.421 234.088 120.421C234.088 120.421 235.641 128.902 238.462 127.859C238.462 127.859 239.31 127.717 238.462 123.931C237.614 120.137 237.614 120.137 237.614 120.137C237.614 120.137 239.73 124.909 243.961 124.909C248.192 124.909 246.497 122.101 245.656 121.96C244.809 121.818 242.551 121.676 242.693 119.151C242.693 119.151 248.477 118.733 246.71 114.237C244.944 109.749 239.075 112.982 239.075 112.982Z" fill="white"/>
<path d="M236.254 63.8268C234.124 62.1959 231.88 60.6784 229.594 59.2956" stroke="#5597D2" stroke-width="1.5" stroke-miterlimit="10" stroke-linecap="round" stroke-linejoin="round"/>
<path d="M240.278 112.443C244.26 110.883 246.354 113.542 246.354 113.542C246.354 113.542 253.292 103.743 252.153 88.4754C251.533 80.1292 246.518 72.7545 239.744 66.7129" stroke="#5597D2" stroke-width="1.5" stroke-miterlimit="10" stroke-linecap="round" stroke-linejoin="round"/>
<path d="M190.5 51.5C192.5 53 194.5 56 199 56C205.525 56.9502 214.441 46 214 38.5C213.658 32.6881 216.587 28.2296 216.587 28.2296L219.643 24.5351L187.803 16.5931L188.066 25.8399L181.442 31.2646C181.442 31.2646 168 44 164.5 49C163.161 54.7367 160.626 60.611 172.5 67C185.5 71 189 57 189 57L190.5 51.5Z" fill="#D4ECFA"/>
<path d="M216.5 29C216.5 29 213.5 33.1755 213.5 39.5C213.5 44 207.5 53 202 56C197.611 58.3943 190.5 52 186 44.5C184.234 39.5 187.5 34.5 187.5 34.5" stroke="#5597D2" stroke-width="1.5" stroke-miterlimit="10" stroke-linecap="round" stroke-linejoin="round"/>
<path d="M181.463 31.4915C181.463 31.4915 167.5 44 165 48.5C162.5 53 160.626 60.611 172.5 67C186 72 189.5 55 189.5 55" stroke="#5597D2" stroke-width="1.5" stroke-miterlimit="10" stroke-linecap="round" stroke-linejoin="round"/>
<path d="M200.311 20.94C200.311 20.94 214.044 29.662 221.63 26.4072C229.216 23.1524 233.155 12.5654 230.441 9.16878C227.727 5.77215 211.565 -1.07074 209.165 0.141831C206.764 1.35441 206.372 6.28271 201.536 6.97054C196.692 7.65129 190.331 2.21243 186.193 7.56619C182.054 12.9271 184.148 32.7679 184.148 32.7679C184.148 32.7679 188.08 34.3847 189.712 31.2008C191.343 28.0169 186.827 20.5429 190.987 21.6774C195.139 22.812 196.956 25.3648 196.956 25.3648L200.311 20.94Z" fill="#91D1F4"/>
<path d="M204.149 33.7834C204.375 32.8346 203.988 31.9305 203.283 31.7641C202.579 31.5977 201.825 32.232 201.599 33.1808C201.372 34.1297 201.76 35.0337 202.464 35.2001C203.169 35.3665 203.923 34.7322 204.149 33.7834Z" fill="#5597D2"/>
<path d="M212.133 35.1884C212.331 34.3576 212.024 33.5736 211.446 33.4372C210.868 33.3009 210.238 33.8638 210.04 34.6946C209.842 35.5254 210.149 36.3094 210.727 36.4458C211.305 36.5821 211.934 36.0192 212.133 35.1884Z" fill="#5597D2"/>
<path d="M237.13 19.5359C237.13 19.5359 235.969 14.7849 239.146 13.076C241.832 11.6294 244.339 12.4023 244.332 15.6004C244.325 18.5148 241.383 22.1809 241.931 26.0526C242.48 29.9244 243.79 31.5837 243.79 31.5837" stroke="#5597D2" stroke-width="1.5" stroke-miterlimit="10" stroke-linecap="round" stroke-linejoin="round"/>
<path d="M246.013 37.1502C246.753 37.1502 247.352 36.5533 247.352 35.8171C247.352 35.0808 246.753 34.4839 246.013 34.4839C245.273 34.4839 244.674 35.0808 244.674 35.8171C244.674 36.5533 245.273 37.1502 246.013 37.1502Z" fill="#5597D2"/>
<path d="M208.5 39C209 41.5 209.7 42.6 206.5 43" stroke="#5597D2" stroke-width="1.5" stroke-miterlimit="10" stroke-linecap="round" stroke-linejoin="round"/>
<g clip-path="url(#clip0)">
<path d="M203 46.5C202.667 46.5 201.7 46.7 200.5 47.5" stroke="#5597D2" stroke-width="1.5" stroke-miterlimit="10" stroke-linecap="round" stroke-linejoin="round"/>
</g>
<defs>
<clipPath id="clip0">
<rect width="5" height="4" fill="white" transform="translate(199 45)"/>
</clipPath>
</defs>
</svg>
